<?xml version="1.0" encoding="UTF-8"?>
<svg width="80px" height="80px" viewBox="0 0 80 80" version="1.1" xmlns="http://www.w3.org/2000/svg" xmlns:xlink="http://www.w3.org/1999/xlink">
    <title>Graphic</title>
    <defs>
        <rect id="path-1" x="0" y="0" width="380" height="380" rx="8"></rect>
        <filter x="-8.4%" y="-5.8%" width="116.8%" height="116.8%" filterUnits="objectBoundingBox" id="filter-3">
            <feMorphology radius="2.5" operator="erode" in="SourceAlpha" result="shadowSpreadOuter1"></feMorphology>
            <feOffset dx="0" dy="5" in="shadowSpreadOuter1" result="shadowOffsetOuter1"></feOffset>
            <feGaussianBlur stdDeviation="6" in="shadowOffsetOuter1" result="shadowBlurOuter1"></feGaussianBlur>
            <feColorMatrix values="0 0 0 0 0   0 0 0 0 0   0 0 0 0 0  0 0 0 0.0725251311 0" type="matrix" in="shadowBlurOuter1" result="shadowMatrixOuter1"></feColorMatrix>
            <feMorphology radius="1" operator="erode" in="SourceAlpha" result="shadowSpreadOuter2"></feMorphology>
            <feOffset dx="0" dy="10" in="shadowSpreadOuter2" result="shadowOffsetOuter2"></feOffset>
            <feGaussianBlur stdDeviation="10" in="shadowOffsetOuter2" result="shadowBlurOuter2"></feGaussianBlur>
            <feColorMatrix values="0 0 0 0 0.196078431   0 0 0 0 0.196078431   0 0 0 0 0.364705882  0 0 0 0.153354458 0" type="matrix" in="shadowBlurOuter2" result="shadowMatrixOuter2"></feColorMatrix>
            <feMerge>
                <feMergeNode in="shadowMatrixOuter1"></feMergeNode>
                <feMergeNode in="shadowMatrixOuter2"></feMergeNode>
            </feMerge>
        </filter>
    </defs>
    <g id="Design" stroke="none" stroke-width="1" fill="none" fill-rule="evenodd">
        <g id="Design---Homepage--Short-version-" transform="translate(-979.000000, -920.000000)">
            <rect fill="#FFFFFF" x="0" y="0" width="1440" height="2929"></rect>
            <g id="Boxes" transform="translate(143.000000, 484.000000)">
                <g id="Box_06" transform="translate(798.000000, 400.000000)">
                    <mask id="mask-2" fill="white">
                        <use xlink:href="#path-1"></use>
                    </mask>
                    <g id="Mask-Copy-3">
                        <use fill="black" fill-opacity="1" filter="url(#filter-3)" xlink:href="#path-1"></use>
                        <use fill="#FFFFFF" fill-rule="evenodd" xlink:href="#path-1"></use>
                    </g>
                    <g id="Graphic" mask="url(#mask-2)">
                        <g transform="translate(38.000000, 36.000000)">
                            <rect id="Rectangle" x="0" y="0" width="80" height="80"></rect>
                            <g id="Group-6" stroke-width="1" fill-rule="evenodd" transform="translate(4.000000, 17.000000)">
                                <path d="M20,45.5016667 L36.2162162,45.5016667" id="Combined-Shape" stroke="#6A6A6A" stroke-linecap="round"></path>
                                <line x1="30.5405405" y1="40" x2="30.5738869" y2="44.635026" id="Line-3-Copy" stroke="#6A6A6A" stroke-linecap="square"></line>
                                <line x1="25.6351351" y1="40" x2="25.6684814" y2="44.635026" id="Line-3-Copy-2" stroke="#6A6A6A" stroke-linecap="square"></line>
                                <g id="Group-12" transform="translate(41.000000, 18.000000)">
                                    <path d="M25.9,7.03618583 C25.9552285,7.03618583 26,7.08095736 26,7.13618583 L26,7.13618583 L26,24.6722058 C26,24.7177185 25.9692673,24.7574903 25.9252265,24.7689716 L25.9252265,24.7689716 L16.2673892,27.2876416 C16.2019468,27.3290559 16.1243718,27.3530297 16.0411975,27.3530297 L16,27.3504063 L15.9588025,27.3530297 C15.8756282,27.3530297 15.7980532,27.3290559 15.7326108,27.2876416 L6.07477346,24.7689716 C6.03073272,24.7574903 6,24.7177185 6,24.6722058 L6,7.13618583 C6,7.08095736 6.04477153,7.03618583 6.1,7.03618583 C6.10820256,7.03618583 6.11637397,7.03719505 6.12433005,7.03919074 L16,9.51640628 L25.8756699,7.03919074 C25.879648,7.03819289 25.8836799,7.03744167 25.8877425,7.0369399 Z" id="Combined-Shape" stroke="#FF5AEC"></path>
                                    <line x1="8" y1="13.6114909" x2="13.7734066" y2="15.2448237" id="Line-2-Copy-3" stroke="#7F2368" stroke-width="0.4" stroke-linecap="round"></line>
                                    <line x1="8" y1="15.3057455" x2="13.7734066" y2="16.9390783" id="Line-2-Copy-4" stroke="#7F2368" stroke-width="0.4" stroke-linecap="round"></line>
                                    <line x1="8" y1="12" x2="13.7734066" y2="13.6333328" id="Line-2-Copy-2" stroke="#7F2368" stroke-width="0.4" stroke-linecap="round"></line>
                                    <line x1="16" y1="10" x2="16" y2="27.0181818" id="Line-3" stroke="#FF5AEC" stroke-width="0.6" stroke-linecap="square"></line>
                                    <g id="Line" transform="translate(18.000000, 12.000000)" stroke="#7F2368" stroke-linecap="round" stroke-width="0.4">
                                        <line x1="1.05826459e-12" y1="1.5576429e-13" x2="5.67272727" y2="1.872325" id="Line-2" transform="translate(2.836364, 0.936163) scale(-1, 1) translate(-2.836364, -0.936163) "></line>
                                        <line x1="1.05826459e-12" y1="5" x2="5.67272727" y2="6.872325" id="Line-2-Copy-6" transform="translate(2.836364, 5.936163) scale(-1, 1) translate(-2.836364, -5.936163) "></line>
                                        <line x1="1.05826459e-12" y1="1.712325" x2="5.67272727" y2="3.58465" id="Line-2-Copy" transform="translate(2.836364, 2.648488) scale(-1, 1) translate(-2.836364, -2.648488) "></line>
                                        <line x1="1.05826459e-12" y1="6.712325" x2="5.67272727" y2="8.58465" id="Line-2-Copy-7" transform="translate(2.836364, 7.648488) scale(-1, 1) translate(-2.836364, -7.648488) "></line>
                                        <line x1="1.05826459e-12" y1="3.42465" x2="5.67272727" y2="5.296975" id="Line-2-Copy-2" transform="translate(2.836364, 4.360813) scale(-1, 1) translate(-2.836364, -4.360813) "></line>
                                        <line x1="1.05826459e-12" y1="8.42465" x2="5.67272727" y2="10.296975" id="Line-2-Copy-8" transform="translate(2.836364, 9.360813) scale(-1, 1) translate(-2.836364, -9.360813) "></line>
                                    </g>
                                    <circle id="Oval" stroke="#BBBBBB" stroke-width="0.4" cx="16" cy="16" r="15.8"></circle>
                                </g>
                                <g id="noun_Settings_1839132" transform="translate(29.462652, 17.347125) rotate(-131.000000) translate(-29.462652, -17.347125) translate(20.462652, 2.847125)" fill-rule="nonzero" stroke="#6A6A6A" stroke-width="0.6">
                                    <g id="Group" transform="translate(0.559014, 0.558620)">
                                        <path d="M7.00274667,5.31256 C7.79738667,4.93533333 8.69088,4.89016 9.52013333,5.18408 C10.3490933,5.47888 11.0134933,6.07845333 11.39072,6.8728 C12.1701067,8.51312 11.4702133,10.48168 9.83077333,11.2607733 C8.18957333,12.0395733 6.22130667,11.3399733 5.4428,9.70024 C4.66341333,8.06021333 5.36330667,6.09165333 7.00274667,5.31256 Z" id="Shape"></path>
                                        <path d="M3.15186667,12.32264 C3.08410667,12.32264 3.01576,12.3317333 2.94858667,12.3502133 L1.81866667,12.65528 C1.60394667,12.7116 1.37925333,12.6062933 1.28568,12.4024267 L0.63272,10.9891467 C0.54208,10.7873333 0.60896,10.54944 0.79024,10.4241867 L1.75354667,9.7768 C1.99848,9.61546667 2.12989333,9.32888 2.09645333,9.02704 C2.05626667,8.6988 2.04394667,8.35530667 2.05978667,8.00624 C2.07298667,7.71056 1.92456,7.43424 1.67141333,7.28493333 L0.655013333,6.69621333 C0.461706667,6.58122667 0.377226667,6.35125333 0.45408,6.14856 L1.00026667,4.69186667 C1.078,4.48741333 1.29096,4.36773333 1.50744,4.40762667 L2.66258667,4.62704 C2.94858667,4.68424 3.24309333,4.57541333 3.43288,4.33869333 C3.63762667,4.07762667 3.872,3.82565333 4.1272,3.59186667 C4.35013333,3.39504 4.44282667,3.0844 4.36421333,2.80192 L4.05826667,1.67024 C3.99784,1.4564 4.10226667,1.23317333 4.30848,1.13842667 L5.69888,0.482826667 C5.90069333,0.400106667 6.13653333,0.470506667 6.25826667,0.649733333 L6.91621333,1.61802667 C7.07784,1.86296 7.36354667,1.99584 7.66597333,1.96064 C7.99450667,1.92045333 8.33770667,1.90872 8.68648,1.92397333 C8.98069333,1.93658667 9.25848,1.78874667 9.40778667,1.53589333 L9.99650667,0.5192 C10.1114933,0.326186667 10.3411733,0.241413333 10.54416,0.318266667 L12.0008533,0.864746667 C12.2053067,0.94248 12.3246933,1.15602667 12.2848,1.37162667 L12.0653867,2.52266667 C12.0073067,2.81424 12.1199467,3.11109333 12.3590133,3.29736 C12.6497067,3.52645333 12.8996267,3.76082667 13.1222667,4.01368 C13.3208533,4.23866667 13.63296,4.33370667 13.9172,4.25568 L15.0309867,3.95589333 C15.2462933,3.89957333 15.4706933,4.00576 15.5642667,4.20874667 L16.2172267,5.62202667 C16.3078667,5.82413333 16.2409867,6.06202667 16.05912,6.18728 L15.0714667,6.85842667 C14.8291733,7.02826667 14.7042133,7.30722667 14.73736,7.60349333 C14.77432,7.94669333 14.7845867,8.27757333 14.7687467,8.61578667 C14.7555467,8.91968 14.91336,9.20773333 15.16944,9.34853333 L16.1738133,9.91496 C16.36712,10.0299467 16.4516,10.25992 16.3747467,10.4626133 L15.82856,11.9193067 C15.7508267,12.12376 15.53728,12.2428533 15.32168,12.2035467 L14.1527467,11.97856 C13.8676267,11.924 13.5760533,12.0354667 13.3915467,12.2660267 C13.1923733,12.5150667 12.9574133,12.76352 12.6945867,13.00464 C12.47224,13.2073333 12.3818933,13.5091733 12.45904,13.7928267 L12.75912,14.9069067 C12.8160267,15.1222133 12.7095467,15.34632 12.5062667,15.4398933 L11.09328,16.0931467 C10.89088,16.1837867 10.65328,16.1166133 10.5277333,15.9347467 L9.856,14.9462133 C9.68557333,14.7036267 9.40602667,14.5795467 9.11093333,14.6124 C8.77536,14.6490667 8.43509333,14.6587467 8.09922667,14.6437867 C7.80589333,14.6338133 7.52370667,14.78048 7.37234667,15.03744 L6.79477333,16.0377067 C6.67949333,16.2313067 6.44981333,16.3146133 6.24682667,16.23864 L4.79013333,15.69216 C4.58568,15.6144267 4.46629333,15.40088 4.50618667,15.1855733 L4.73058667,14.01928 C4.78896,13.73328 4.67896,13.4381867 4.44312,13.25016 C4.44312,13.2498667 4.44282667,13.2498667 4.44282667,13.2498667 C4.20405333,13.0606667 3.96645333,12.8371467 3.73677333,12.5851733 C3.58248,12.4153333 3.36981333,12.32264 3.15186667,12.32264 Z" id="Shape"></path>
                                        <path d="M13.9529725,21.6492817 L13.2753725,21.5319484 C13.1847325,21.514935 13.1146258,21.4521617 13.0879325,21.3650417 C13.0304391,21.1723217 12.9500658,20.9713884 12.8482791,20.7684017 C12.8075058,20.6871484 12.8151325,20.5950417 12.8685191,20.521415 L13.2806525,19.9488284 C13.4252658,19.7508284 13.4035591,19.480375 13.2284391,19.3055484 L12.5745991,18.6520017 C12.4024125,18.479815 12.1334258,18.4545884 11.9321991,18.593335 L11.3687058,18.9957884 C11.2971325,19.0477084 11.2000391,19.0532817 11.1146791,19.0116284 C10.9199058,18.9086684 10.7265991,18.8268284 10.5280125,18.762295 C10.4403058,18.7309084 10.3751858,18.6578684 10.3593458,18.574855 L10.2417191,17.874375 C10.2041725,17.633255 9.99267914,17.4516817 9.75009248,17.4516817 L8.81787914,17.4516817 C8.57147914,17.4516817 8.36731914,17.6215217 8.32126581,17.8667484 L8.20363914,18.5402417 C8.18662581,18.632055 8.12414581,18.7004017 8.03027914,18.7282684 C7.81291914,18.7951484 7.60494581,18.8796284 7.41339914,18.9781884 C7.32862581,19.0204284 7.23182581,19.0145617 7.16083914,18.9632284 L6.59382581,18.5566684 C6.39523914,18.4123484 6.12478581,18.434055 5.95025248,18.6088817 L5.29670581,19.2624284 C5.12451914,19.4343217 5.09929248,19.703895 5.23745248,19.9039484 L5.63843914,20.4759484 C5.68918581,20.5501617 5.69622581,20.647255 5.65691914,20.7223484 C5.55806581,20.9089084 5.47387914,21.1095484 5.40523914,21.3210417 C5.37971914,21.404055 5.30755914,21.4662417 5.22043914,21.4829617 L4.52963914,21.5953084 C4.30113248,21.6322684 4.11750581,21.837015 4.10225248,22.0813617 L4.10225248,23.0138684 C4.10225248,23.2605617 4.27209248,23.4647217 4.51761248,23.5104817 L5.20577248,23.627815 C5.29435914,23.6448284 5.36857248,23.7093617 5.39526581,23.7926684 C5.46889248,24.0200017 5.54897248,24.2162417 5.63931914,24.3913617 C5.67979914,24.4720284 5.67393248,24.569415 5.62435914,24.6386417 L5.21809248,25.205655 C5.07318581,25.4033617 5.09489248,25.6741084 5.27001248,25.848935 L5.92385248,26.502775 C6.09633248,26.675255 6.36531914,26.6996017 6.56507914,26.561735 L7.13678581,26.1607484 C7.21011914,26.111175 7.30955914,26.103255 7.38377248,26.1425617 C7.57033248,26.2408284 7.77067914,26.3253084 7.98246581,26.3939484 C8.06547914,26.4194684 8.12766581,26.4919217 8.14438581,26.5787484 L8.25673248,27.269255 C8.29427914,27.510375 8.50577248,27.6919484 8.74835914,27.6919484 L9.68057248,27.6919484 C9.92726581,27.6919484 10.1311325,27.5221084 10.1771858,27.2768817 L10.2948125,26.5928284 C10.3115325,26.5024817 10.3743058,26.4320817 10.4637725,26.4048017 C10.6582525,26.3437884 10.8497991,26.2648817 11.0316658,26.171015 C11.1123325,26.1308284 11.2094258,26.1361084 11.2783591,26.185975 L11.8506525,26.5975217 C12.0486525,26.7427217 12.3193991,26.7207217 12.4942258,26.5456017 L13.1480658,25.892055 C13.3199591,25.719575 13.3448925,25.4500017 13.2067325,25.2502417 L12.8089725,24.6858684 C12.7576391,24.6154684 12.7535325,24.5204284 12.7984125,24.437415 C12.9010791,24.2432284 12.9832125,24.0499217 13.0477458,23.8507484 C13.0794258,23.7630417 13.1527591,23.6979217 13.2354791,23.6817884 L13.9356658,23.5641617 C14.1767858,23.5269084 14.3583591,23.315415 14.3583591,23.072535 L14.3577725,22.153815 C14.3806525,21.9103484 14.2028925,21.6885884 13.9529725,21.6492817 Z" id="Shape"></path>
                                        <path d="M9.22569107,20.6668208 C8.7039541,20.6718798 8.23222647,20.8889299 7.89233103,21.2351537 C7.55254954,21.5812614 7.3444217,22.0565637 7.34935906,22.5786581 C7.35417111,23.0841762 7.55587173,23.5579983 7.91727501,23.9130701 C8.2750082,24.2644605 8.74621507,24.455975 9.26403914,24.455975 C9.78363664,24.4509236 10.2553569,24.2338793 10.5952857,23.8876683 C10.9351313,23.541542 11.143343,23.0662055 11.1385319,22.5440726 C11.1337205,22.0386272 10.9320199,21.5648051 10.5706166,21.2097333 C10.2088609,20.8543109 9.72469032,20.6632746 9.22569107,20.6668208 Z" id="Shape"></path>
                                    </g>
                                </g>
                                <path d="M37.7442627,39 L1.95135135,39 C0.873649758,39 -1.64437646e-15,38.1263502 0,37.0486486 L0,1.95135135 C-3.54024986e-16,0.873649758 0.873649758,1.5302382e-15 1.95135135,0 L55.0486486,0 C56.1263502,-3.80469116e-15 57,0.873649758 57,1.95135135 L57,4.6745477 L57,4.6745477 L57,12.987854 L57,14.1778382" id="Combined-Shape" stroke="#6A6A6A" stroke-linecap="square"></path>
                            </g>
                        </g>
                    </g>
                </g>
            </g>
        </g>
    </g>
</svg>