<?xml version="1.0" encoding="UTF-8"?>
<svg width="80px" height="80px" viewBox="0 0 80 80" version="1.1" xmlns="http://www.w3.org/2000/svg" xmlns:xlink="http://www.w3.org/1999/xlink">
    <title>Graphic</title>
    <defs>
        <rect id="path-1" x="-2.84217094e-14" y="0" width="380" height="380" rx="8"></rect>
        <filter x="-8.4%" y="-5.8%" width="116.8%" height="116.8%" filterUnits="objectBoundingBox" id="filter-3">
            <feMorphology radius="2.5" operator="erode" in="SourceAlpha" result="shadowSpreadOuter1"></feMorphology>
            <feOffset dx="0" dy="5" in="shadowSpreadOuter1" result="shadowOffsetOuter1"></feOffset>
            <feGaussianBlur stdDeviation="6" in="shadowOffsetOuter1" result="shadowBlurOuter1"></feGaussianBlur>
            <feColorMatrix values="0 0 0 0 0   0 0 0 0 0   0 0 0 0 0  0 0 0 0.0725251311 0" type="matrix" in="shadowBlurOuter1" result="shadowMatrixOuter1"></feColorMatrix>
            <feMorphology radius="1" operator="erode" in="SourceAlpha" result="shadowSpreadOuter2"></feMorphology>
            <feOffset dx="0" dy="10" in="shadowSpreadOuter2" result="shadowOffsetOuter2"></feOffset>
            <feGaussianBlur stdDeviation="10" in="shadowOffsetOuter2" result="shadowBlurOuter2"></feGaussianBlur>
            <feColorMatrix values="0 0 0 0 0.196078431   0 0 0 0 0.196078431   0 0 0 0 0.364705882  0 0 0 0.153354458 0" type="matrix" in="shadowBlurOuter2" result="shadowMatrixOuter2"></feColorMatrix>
            <feMerge>
                <feMergeNode in="shadowMatrixOuter1"></feMergeNode>
                <feMergeNode in="shadowMatrixOuter2"></feMergeNode>
            </feMerge>
        </filter>
    </defs>
    <g id="Design" stroke="none" stroke-width="1" fill="none" fill-rule="evenodd">
        <g id="Design---Homepage--Short-version-" transform="translate(-174.000000, -516.000000)">
            <rect fill="#FFFFFF" x="0" y="0" width="1440" height="2929"></rect>
            <g id="Boxes" transform="translate(143.000000, 484.000000)">
                <g id="Box_01-Learn">
                    <mask id="mask-2" fill="white">
                        <use xlink:href="#path-1"></use>
                    </mask>
                    <g id="Mask-Copy">
                        <use fill="black" fill-opacity="1" filter="url(#filter-3)" xlink:href="#path-1"></use>
                        <use fill="#FFFFFF" fill-rule="evenodd" xlink:href="#path-1"></use>
                    </g>
                    <g id="Graphic" mask="url(#mask-2)">
                        <g transform="translate(31.000000, 32.000000)">
                            <rect id="Rectangle" x="0" y="0" width="80" height="80"></rect>
                            <g id="Lamp" stroke-width="1" fill-rule="evenodd" transform="translate(11.000000, 14.000000)">
                                <path d="M27.3447182,-1.38555833e-13 C26.8946205,-1.38555833e-13 26.5369488,0.370945081 26.5369488,0.810346191 L26.5369488,9.28541088 C26.5369488,9.73648624 26.8946205,10.0943869 27.3447182,10.0943869 C27.7948159,10.0943869 28.1524876,9.73648624 28.1524876,9.28541088 L28.1524876,0.810346191 C28.1524876,0.359380451 27.7948159,-1.38555833e-13 27.3447182,-1.38555833e-13 Z M13.8089744,5.38906251 C13.6793594,5.39070677 13.5486506,5.42414006 13.4299736,5.4926509 C13.0373003,5.71243366 12.898388,6.2095483 13.1176944,6.59101665 C13.1176944,6.59101665 13.1182413,6.60252647 13.1297262,6.60252647 L16.4302601,12.3503117 C16.5686254,12.6161338 16.8338713,12.7657614 17.1226339,12.7657614 C17.5721846,12.7657614 17.9298564,12.4073127 17.9298564,11.9562374 C17.9298564,11.8175714 17.8954018,11.6789055 17.8264925,11.5517494 L14.5259587,5.80506032 C14.3750146,5.53485357 14.0939087,5.38467781 13.8089744,5.38906251 L13.8089744,5.38906251 Z M41.0833614,5.40934172 C40.7973334,5.4016685 40.5178681,5.54691148 40.3592675,5.81711822 L37.0598274,11.5632592 C36.840521,11.9447276 36.9674015,12.4423903 37.348043,12.6736829 C37.7286846,12.8929176 38.2247217,12.7657614 38.455513,12.3842931 L38.455513,12.3727833 L41.7669849,6.61458438 C41.9862913,6.23311603 41.8594107,5.73600139 41.4667375,5.51621862 C41.3442321,5.44770779 41.2135233,5.41263024 41.0833614,5.40934172 Z M4.17863451,15.3335476 C3.89287992,15.3214897 3.60882071,15.4639923 3.45016539,15.7265258 C3.21942881,16.1079942 3.34609056,16.6051088 3.72684146,16.8364014 L3.73854509,16.8473631 L9.44980863,20.16548 C9.83099705,20.3852628 10.3270342,20.2581067 10.5578255,19.8766383 C10.7886167,19.49517 10.6502514,18.9980553 10.2690629,18.7667628 L4.5577994,15.4480978 C4.43879424,15.3757503 4.30846827,15.3390285 4.17857982,15.3335476 L4.17863451,15.3335476 Z M50.4435334,15.4480978 L44.7322698,18.7667628 C44.3516283,18.9865455 44.212716,19.4836602 44.4320224,19.8766383 C44.5818727,20.1194407 44.8476655,20.2707127 45.1358811,20.2707127 C45.2742465,20.2707127 45.4126119,20.235087 45.5400393,20.16548 L51.2513028,16.8473631 C51.6319443,16.6160705 51.7588248,16.1200521 51.5395184,15.7380356 C51.3891213,15.4760502 51.1080153,15.3329996 50.8230811,15.3412209 C50.6934661,15.3450575 50.5627573,15.3795869 50.4435334,15.4480978 Z M0.807550678,28.9885798 C0.357551458,28.9885798 -3.7658765e-13,29.3470285 -3.7658765e-13,29.7981038 C-3.7658765e-13,30.2486311 0.357551458,30.6070798 0.807550678,30.6070798 L9.22979126,30.6070798 C9.67988893,30.6070798 10.0375607,30.2486311 10.0375607,29.7981038 C10.0375607,29.3470285 9.67988893,28.9885798 9.22979126,28.9885798 L0.807550678,28.9885798 Z M45.4596451,28.9885798 C45.0095475,28.9885798 44.6518757,29.3470285 44.6518757,29.7981038 C44.6518757,30.2486311 45.0095475,30.6070798 45.4596451,30.6070798 L53.8818857,30.6070798 C54.3319834,30.6070798 54.6896552,30.2486311 54.6896552,29.7981038 C54.6896552,29.3470285 54.3319834,28.9885798 53.8818857,28.9885798 L45.4596451,28.9885798 Z" id="Shape" fill="#B9B9B9" fill-rule="nonzero"></path>
                                <g id="Group-19" transform="translate(22.413793, 45.724138)" fill="#7F2368" fill-rule="nonzero">
                                    <path d="M0.692373804,8.51811232e-13 C0.306575808,8.51811232e-13 -1.21765324e-12,0.307241746 -1.21765324e-12,0.693877766 C-1.21765324e-12,1.08051379 0.306575808,1.38775553 0.692373804,1.38775553 L9.98902735,1.38775553 C10.3748253,1.38775553 10.6814011,1.08051379 10.6814011,0.693877766 C10.6814011,0.307241746 10.3748253,8.51811232e-13 9.98902735,8.51811232e-13 L0.692373804,8.51811232e-13 Z" id="Path"></path>
                                    <path d="M1.68101047,2.3785397 C1.29568124,2.3785397 0.989105434,2.68578144 0.989105434,3.07194767 C0.989105434,3.45858369 1.29568124,3.76582544 1.68101047,3.76582544 L9.00039068,3.76582544 C9.38571991,3.76582544 9.69229571,3.45858369 9.69229571,3.07194767 C9.69229571,2.68578144 9.38571991,2.3785397 9.00039068,2.3785397 L1.68101047,2.3785397 L1.68101047,2.3785397 Z" id="Path"></path>
                                    <path d="M2.67105344,4.7566096 C2.28525545,4.7566096 1.9777421,5.06385135 1.9777421,5.45048737 C1.9777421,5.83712339 2.28525545,6.14530471 2.67105344,6.14530471 L8.01034771,6.14530471 C8.3961457,6.14530471 8.70365905,5.83712339 8.70365905,5.45048737 C8.70365905,5.06385135 8.3961457,4.7566096 8.01034771,4.7566096 L2.67105344,4.7566096 Z" id="Path"></path>
                                </g>
                                <path d="M27.8759067,11.6551724 C24.6535793,11.6568183 21.4317988,12.8845325 18.96802,15.3421533 C16.5797132,17.6890606 15.2299671,20.8931754 15.2413793,24.2463699 C15.2413793,27.0909399 16.6606542,29.6115906 17.9179744,31.819832 C18.5184693,32.8721584 19.0719308,33.8669358 19.3601464,34.6994795 C19.8797002,36.2489206 20.2608886,37.844401 20.5031648,39.462901 C20.5376194,41.7177297 22.3609798,43.6250715 24.5299802,43.6250715 L31.2327711,43.6250715 C33.3902867,43.6250715 35.2251319,41.7177297 35.2595866,39.462901 C35.5024096,37.844401 35.883598,36.2593343 36.4026049,34.7098931 C36.6913675,33.8658396 37.244829,32.8831202 37.833292,31.8423035 C39.0906122,29.6104945 40.5218462,27.078882 40.5218462,24.2228022 C40.5218462,20.8811175 39.1830381,17.6671371 36.7832465,15.3311916 C34.3194676,12.8795998 31.0976872,11.6535298 27.8759067,11.6551724 Z" id="Path" stroke="#FF5AEC" fill-rule="nonzero"></path>
                            </g>
                        </g>
                    </g>
                </g>
            </g>
        </g>
    </g>
</svg>