<?xml version="1.0" encoding="UTF-8"?>
<svg width="80px" height="80px" viewBox="0 0 80 80" version="1.1" xmlns="http://www.w3.org/2000/svg" xmlns:xlink="http://www.w3.org/1999/xlink">
    <title>Graphic</title>
    <defs>
        <path d="M8,0 L372,0 C376.418278,-8.11624501e-16 380,3.581722 380,8 L380,372 C380,376.418278 376.418278,380 372,380 L8,380 C3.581722,380 3.19348364e-14,376.418278 0,372 L0,84.08446 L0,84.08446 L0,8 C-5.41083001e-16,3.581722 3.581722,8.11624501e-16 8,0 Z" id="path-1"></path>
        <filter x="-8.4%" y="-5.8%" width="116.8%" height="116.8%" filterUnits="objectBoundingBox" id="filter-3">
            <feMorphology radius="2.5" operator="erode" in="SourceAlpha" result="shadowSpreadOuter1"></feMorphology>
            <feOffset dx="0" dy="5" in="shadowSpreadOuter1" result="shadowOffsetOuter1"></feOffset>
            <feGaussianBlur stdDeviation="6" in="shadowOffsetOuter1" result="shadowBlurOuter1"></feGaussianBlur>
            <feColorMatrix values="0 0 0 0 0   0 0 0 0 0   0 0 0 0 0  0 0 0 0.0725251311 0" type="matrix" in="shadowBlurOuter1" result="shadowMatrixOuter1"></feColorMatrix>
            <feMorphology radius="1" operator="erode" in="SourceAlpha" result="shadowSpreadOuter2"></feMorphology>
            <feOffset dx="0" dy="10" in="shadowSpreadOuter2" result="shadowOffsetOuter2"></feOffset>
            <feGaussianBlur stdDeviation="10" in="shadowOffsetOuter2" result="shadowBlurOuter2"></feGaussianBlur>
            <feColorMatrix values="0 0 0 0 0.196078431   0 0 0 0 0.196078431   0 0 0 0 0.364705882  0 0 0 0.153354458 0" type="matrix" in="shadowBlurOuter2" result="shadowMatrixOuter2"></feColorMatrix>
            <feMerge>
                <feMergeNode in="shadowMatrixOuter1"></feMergeNode>
                <feMergeNode in="shadowMatrixOuter2"></feMergeNode>
            </feMerge>
        </filter>
    </defs>
    <g id="Design" stroke="none" stroke-width="1" fill="none" fill-rule="evenodd">
        <g id="Design---Homepage--Short-version-" transform="translate(-175.000000, -920.000000)">
            <rect fill="#FFFFFF" x="0" y="0" width="1440" height="2929"></rect>
            <g id="Boxes" transform="translate(143.000000, 484.000000)">
                <g id="Box_04" transform="translate(0.000000, 400.000000)">
                    <mask id="mask-2" fill="white">
                        <use xlink:href="#path-1"></use>
                    </mask>
                    <g id="Mask-Copy">
                        <use fill="black" fill-opacity="1" filter="url(#filter-3)" xlink:href="#path-1"></use>
                        <use fill="#FFFFFF" fill-rule="evenodd" xlink:href="#path-1"></use>
                    </g>
                    <g id="Graphic" mask="url(#mask-2)">
                        <g transform="translate(32.000000, 36.000000)">
                            <g id="Group-14" stroke-width="1" fill-rule="evenodd" transform="translate(9.000000, 8.000000)">
                                <g id="Group-20" transform="translate(13.372549, 21.882353)">
                                    <path d="M19.2502121,12.4279118 L18.9014076,11.9963738 C18.6346748,11.667583 18.121727,11.6059347 17.7729225,11.8936267 C17.424118,12.1607693 17.3625642,12.674505 17.649815,13.0238453 L17.9986195,13.4553833 C17.5882613,13.6403282 17.1368672,13.7430753 16.6444373,13.7430753 C14.859379,13.7430753 13.4026073,12.3046153 13.4026073,10.5168149 C13.4026073,8.72901456 14.859379,7.27000507 16.6444373,7.27000507 C18.4294957,7.27000507 19.8862674,8.72901456 19.8862674,10.5168149 C19.8862674,11.2360449 19.6400525,11.8936267 19.2502121,12.4279118 L19.2502121,12.4279118 Z M20.2966256,13.7225259 C21.0352705,12.8594499 21.5071824,11.7497807 21.5071824,10.5168149 C21.5071824,7.82483967 19.3322838,5.64660016 16.6444373,5.64660016 C13.9565909,5.64660016 11.7816922,7.82483967 11.7816922,10.5168149 C11.7816922,13.1882407 13.9565909,15.3664802 16.6444373,15.3664802 C17.5061896,15.3664802 18.3269061,15.1404365 19.045033,14.7499974 L19.3117659,15.0787882 C19.5784987,15.4281285 20.0914465,15.4692274 20.440251,15.1815354 C20.7890555,14.9143928 20.8506093,14.4006571 20.5633585,14.0513168 L20.2966256,13.7225259 Z" id="Fill-1" fill="#FF5AEC"></path>
                                    <path d="M30.0776491,4.96683305e-14 C32.5356209,2.94872 34.0149165,6.74214745 34.0149165,10.8824831 C34.0149165,15.1060204 32.4749824,18.9699576 29.9267581,21.9440612" id="Stroke-3" stroke="#6A6A6A" stroke-width="1.21568627" stroke-linecap="round"></path>
                                    <path d="M3.97111216,21.8043107 C1.49339765,18.84995 2.22724671e-12,15.0410104 2.22724671e-12,10.8823421 C2.22724671e-12,6.77303075 1.45814275,3.00357663 3.88368,0.0633178039" id="Stroke-5" stroke="#6A6A6A" stroke-width="1.21568627" stroke-linecap="round"></path>
                                    <path d="M7.69967059,18.6863672 C5.92987451,16.5767139 4.86517647,13.8578558 4.86517647,10.8879829 C4.86517647,7.95477506 5.90590118,5.26271075 7.63762196,3.16433898" id="Stroke-7" stroke="#6A6A6A" stroke-width="1.21568627" stroke-linecap="round"></path>
                                    <path d="M26.3393603,3.11850761 C28.0950544,5.22393035 29.1498811,7.93291702 29.1498811,10.888688 C29.1498811,13.9036872 28.0499282,16.6634409 26.2307752,18.785786" id="Stroke-9" stroke="#6A6A6A" stroke-width="1.21568627" stroke-linecap="round"></path>
                                </g>
                                <path d="M56.6218645,47.6002317 C58.8640762,43.4401533 60.3875137,38.2814745 60.3875137,33.2329725 C60.3875137,28.1421647 58.8781782,22.9538273 56.6218645,18.7796469 M42.1128652,5.89210944 C38.6292741,4.44327135 34.8070015,3.64705882 30.8016,3.64705882 C26.7825412,3.64705882 22.9468078,4.45087059 19.4495216,5.90337255 M4.99443623,18.7796469 C2.57910324,23.0568251 1.21568627,27.9825873 1.21568627,33.2329725 C1.21568627,38.6763294 2.6822902,43.7671373 5.26294902,48.1528471 M19.4213176,60.5343686 C22.9327059,62.0009725 26.7684392,62.8047843 30.8016,62.8047843 C34.9394983,62.8047843 38.8819517,61.9550239 42.4574545,60.4138158" id="Stroke-11" stroke="#B9B9B9" stroke-width="0.516666667" stroke-linecap="round"></path>
                                <g id="e" transform="translate(40.117647, 0.000000)">
                                    <path d="M11.7598342,20.3068235 C11.4072852,20.3632314 11.0547362,20.3773333 10.6880852,20.3773333 C5.37164596,20.3773333 1.05644596,16.0480314 1.05644596,10.7315922 C1.05644596,10.2944314 1.08464988,9.87137255 1.15515969,9.46241569 C1.761544,4.75236078 5.79470478,1.09995294 10.6880852,1.09995294 C16.0045244,1.09995294 20.3338264,5.41515294 20.3338264,10.7315922 C20.3338264,15.6813804 16.5686028,19.785051 11.7598342,20.3068235 M10.6880852,0.549976471 C5.61137929,0.549976471 1.38079106,4.28699608 0.647489098,9.16627451 C0.548775373,9.6739451 0.50646949,10.1957176 0.50646949,10.7315922 C0.50646949,16.3441725 5.07550478,20.9132078 10.6880852,20.9132078 C11.1534499,20.9132078 11.6047126,20.8850039 12.0418734,20.8144941 C17.0198656,20.151702 20.8697009,15.8788078 20.8697009,10.7315922 C20.8697009,5.11901176 16.3006656,0.549976471 10.6880852,0.549976471" id="Fill-25" fill="#B9B9B9"></path>
                                    <path d="M11.0058024,14.9290408 C8.69167059,14.9290408 6.81046902,13.0478392 6.81046902,10.7337075 C6.81046902,8.42098588 8.69167059,6.53837412 11.0058024,6.53837412 C12.125498,6.53837412 13.1803247,6.9755349 13.9728549,7.7680651 C14.0786196,7.8738298 14.0786196,8.04587373 13.9728549,8.15163843 C13.86568,8.25881333 13.6936361,8.25881333 13.5878714,8.15163843 C12.8968753,7.46346275 11.9802478,7.0827098 11.0058024,7.0827098 C8.99204235,7.0827098 7.35480471,8.72135765 7.35480471,10.7337075 C7.35480471,12.7474675 8.99204235,14.3847051 11.0058024,14.3847051 C12.0070416,14.3847051 12.9434118,13.9870298 13.6372282,13.2635992 C13.7415827,13.1564243 13.9150369,13.1521937 14.0222118,13.2565482 C14.1307969,13.3609027 14.1336173,13.5329467 14.0306729,13.6415318 C13.2310918,14.4721373 12.1565224,14.9290408 11.0058024,14.9290408" id="Fill-27" fill="#7F2368"></path>
                                    <path d="M10.7922987,10.1041959 L5.81148612,10.1041959 C5.66059514,10.1041959 5.53931827,9.98291906 5.53931827,9.83202808 C5.53931827,9.6811371 5.66059514,9.55986024 5.81148612,9.55986024 L10.7922987,9.55986024 C10.9417795,9.55986024 11.0644665,9.6811371 11.0644665,9.83202808 C11.0644665,9.98291906 10.9417795,10.1041959 10.7922987,10.1041959" id="Fill-29" fill="#7F2368"></path>
                                    <path d="M10.7922987,12.2070803 L5.81148612,12.2070803 C5.66059514,12.2070803 5.53931827,12.0858035 5.53931827,11.9349125 C5.53931827,11.7840215 5.66059514,11.6627446 5.81148612,11.6627446 L10.7922987,11.6627446 C10.9417795,11.6627446 11.0644665,11.7840215 11.0644665,11.9349125 C11.0644665,12.0858035 10.9417795,12.2070803 10.7922987,12.2070803" id="Fill-31" fill="#7F2368"></path>
                                </g>
                                <g id="y">
                                    <path d="M10.1816157,19.8273569 C8.68680784,19.8273569 7.2625098,19.4748078 5.99333333,18.8402196 C2.77808627,17.3031059 0.549976471,13.9891451 0.549976471,10.1816157 C0.549976471,4.86517647 4.87927843,0.549976471 10.1816157,0.549976471 C14.4545098,0.549976471 18.0928157,3.34216471 19.3478902,7.20610196 C19.6581333,8.13683137 19.8273569,9.13807059 19.8273569,10.1816157 C19.8273569,15.4980549 15.4980549,19.8273569 10.1816157,19.8273569 M19.8555608,6.98047059 C18.5158745,2.93461804 14.6801412,4.88045334e-13 10.1816157,4.88045334e-13 C4.56903529,4.88045334e-13 1.48789042e-12,4.56903529 1.48789042e-12,10.1816157 C1.48789042e-12,14.1865725 2.32682353,17.6697569 5.71129412,19.3196863 C7.05098039,19.9965804 8.57399216,20.3632314 10.1816157,20.3632314 C15.808298,20.3632314 20.3773333,15.7941961 20.3773333,10.1816157 C20.3773333,9.06756078 20.1940078,7.9817098 19.8555608,6.98047059" id="Fill-35" fill="#B9B9B9"></path>
                                    <path d="M10.1878205,10.3271479 C10.0947476,10.3271479 10.0087256,10.2792013 9.95936878,10.2016405 L7.26307388,5.98938478 C7.18269271,5.86246714 7.2193578,5.6946538 7.34486525,5.61286243 C7.4717829,5.53248125 7.63959624,5.56914635 7.72138761,5.696064 L10.1878205,9.55012988 L12.6556637,5.696064 C12.7360449,5.56914635 12.9038582,5.53248125 13.0307758,5.61286243 C13.1576935,5.6946538 13.1943586,5.86246714 13.1125672,5.98938478 L10.4176825,10.2016405 C10.3669155,10.2792013 10.2808935,10.3271479 10.1878205,10.3271479" id="Fill-38" fill="#7F2368"></path>
                                    <path d="M10.1878205,14.7987387 C10.0383398,14.7987387 9.91565271,14.6774618 9.91565271,14.5265708 L9.91565271,10.0548391 C9.91565271,9.90394808 10.0383398,9.78267122 10.1878205,9.78267122 C10.3387115,9.78267122 10.4599884,9.90394808 10.4599884,10.0548391 L10.4599884,14.5265708 C10.4599884,14.6774618 10.3387115,14.7987387 10.1878205,14.7987387" id="Fill-40" fill="#7F2368"></path>
                                    <path d="M12.0016147,10.5942391 L8.37459043,10.5942391 C8.22510965,10.5942391 8.10242259,10.4729622 8.10242259,10.3220712 C8.10242259,10.1711802 8.22510965,10.0499034 8.37459043,10.0499034 L12.0016147,10.0499034 C12.1510955,10.0499034 12.2737826,10.1711802 12.2737826,10.3220712 C12.2737826,10.4729622 12.1510955,10.5942391 12.0016147,10.5942391" id="Fill-42" fill="#7F2368"></path>
                                    <path d="M12.0016147,12.0326391 L8.37459043,12.0326391 C8.22510965,12.0326391 8.10242259,11.9113622 8.10242259,11.7604712 C8.10242259,11.6109904 8.22510965,11.4883034 8.37459043,11.4883034 L12.0016147,11.4883034 C12.1510955,11.4883034 12.2737826,11.6109904 12.2737826,11.7604712 C12.2737826,11.9113622 12.1510955,12.0326391 12.0016147,12.0326391" id="Fill-44" fill="#7F2368"></path>
                                </g>
                                <g id="$" transform="translate(0.000000, 46.196078)">
                                    <path d="M10.2498692,4.94316031 C10.39935,4.94316031 10.522037,5.06584737 10.522037,5.21532816 L10.5233436,6.40784885 C11.8432633,6.53870842 12.4679713,7.49789799 12.6174474,8.01908 C12.6597533,8.16292 12.5751415,8.31381098 12.4313015,8.35611686 C12.2874615,8.39701255 12.1365705,8.31381098 12.0956748,8.16997098 C12.0801627,8.11920392 11.7149219,6.95297176 10.2469078,6.93745961 C9.01580659,6.92194745 8.34737365,7.35910824 8.33891247,8.19394431 C8.33186149,8.83699373 8.64069443,9.21633647 9.34297208,9.42363529 C10.2539587,9.69298275 11.176227,9.96938118 11.176227,9.96938118 C11.226994,9.98348314 12.4834787,10.3600055 12.607576,11.7137937 C12.7062897,12.7940039 11.9899101,13.3862863 11.5894144,13.5540996 C11.5070156,13.5941546 11.0884101,13.787453 10.5227803,13.8588889 L10.522037,15.160595 C10.522037,15.311486 10.39935,15.4327628 10.2498692,15.4327628 C10.1003884,15.4327628 9.97770133,15.311486 9.97770133,15.160595 L9.97760772,13.8811603 L9.96053726,13.8820402 C9.26769268,13.8491941 8.46912058,13.5739364 7.80444816,12.7065718 C7.71278541,12.5867051 7.73393835,12.4160714 7.85380502,12.3244086 C7.97367169,12.2327459 8.14430541,12.255309 8.23455796,12.3751757 C9.49386306,14.0152337 11.2763509,13.1042471 11.3496811,13.0647616 C11.3581423,13.0619412 11.3666035,13.0577106 11.3750646,13.05348 C11.4046787,13.0407882 12.1520827,12.7150329 12.0646505,11.7645608 C11.9758082,10.7858847 11.0605909,10.5024353 11.0225156,10.4911537 C11.0196952,10.4911537 10.097427,10.2147553 9.18785051,9.94540784 C8.25430071,9.66900941 7.78470541,9.07813725 7.79457678,8.18830353 C7.80002396,7.66401253 8.03166056,6.47824898 9.97783162,6.39747017 L9.97770133,5.21532816 C9.97770133,5.06584737 10.1003884,4.94316031 10.2498692,4.94316031 Z" id="Combined-Shape" fill="#7F2368"></path>
                                    <path d="M19.3196863,13.2135373 C18.0646118,17.0492706 14.4404078,19.8273569 10.1816157,19.8273569 C4.87927843,19.8273569 0.549976471,15.4980549 0.549976471,10.1816157 C0.549976471,6.38818824 2.76398431,3.08832941 5.96512941,1.55121569 C7.23430588,0.90252549 8.67270588,0.549976471 10.1816157,0.549976471 C15.4980549,0.549976471 19.8273569,4.87927843 19.8273569,10.1816157 C19.8273569,11.2392627 19.6581333,12.2687059 19.3196863,13.2135373 M10.1816157,-7.25589523e-13 C8.5598902,-7.25589523e-13 7.02277647,0.380752941 5.66898824,1.05764706 C2.31272157,2.72167843 1.48573093e-12,6.19076078 1.48573093e-12,10.1816157 C1.48573093e-12,15.808298 4.56903529,20.3773333 10.1816157,20.3773333 C14.6660392,20.3773333 18.4876706,17.4723294 19.8273569,13.4391686 C20.1940078,12.4097255 20.3773333,11.3238745 20.3773333,10.1816157 C20.3773333,4.56903529 15.808298,-7.25589523e-13 10.1816157,-7.25589523e-13" id="Fill-21" fill="#B9B9B9"></path>
                                </g>
                                <g id="b" transform="translate(41.333333, 46.196078)">
                                    <path d="M10.1816157,19.8273569 C5.31643922,19.8273569 1.29738039,16.2031529 0.662792157,11.521302 C0.578180392,11.0841412 0.549976471,10.6328784 0.549976471,10.1816157 C0.549976471,4.87927843 4.86517647,0.549976471 10.1816157,0.549976471 C10.5482667,0.549976471 10.9149176,0.578180392 11.2815686,0.620486275 C16.0762353,1.15636078 19.8273569,5.24592941 19.8273569,10.1816157 C19.8273569,15.4980549 15.4980549,19.8273569 10.1816157,19.8273569 M11.5636078,0.112815686 C11.1123451,0.0282039216 10.6469804,3.80070703e-13 10.1816157,3.80070703e-13 C4.56903529,3.80070703e-13 2.70584426e-12,4.56903529 2.70584426e-12,10.1816157 C2.70584426e-12,10.7456941 0.0423058824,11.2815686 0.141019608,11.8174431 C0.916627451,16.6685176 5.13311373,20.3773333 10.1816157,20.3773333 C15.7941961,20.3773333 20.3632314,15.808298 20.3632314,10.1816157 C20.3632314,5.0344 16.527498,0.775607843 11.5636078,0.112815686" id="Fill-48" fill="#B9B9B9"></path>
                                    <path d="M8.54621129,13.8905724 L10.651634,13.8905724 C11.6063368,13.8905724 12.3819446,13.1135544 12.3819446,12.1602618 C12.3819446,11.2055591 11.6063368,10.428541 10.651634,10.428541 L8.54621129,10.428541 L8.54621129,13.8905724 Z M10.651634,14.4349081 L7.49420502,14.4349081 C7.34331404,14.4349081 7.22203718,14.312221 7.22203718,14.1627402 C7.22203718,14.0118493 7.34331404,13.8905724 7.49420502,13.8905724 L8.00187561,13.8905724 L8.00187561,10.1577834 C8.00187561,10.0068924 8.12456267,9.88561553 8.27404345,9.88561553 L10.651634,9.88561553 C11.9067085,9.88561553 12.9262803,10.9051873 12.9262803,12.1602618 C12.9262803,13.4139261 11.9067085,14.4349081 10.651634,14.4349081 L10.651634,14.4349081 Z" id="Fill-50" fill="#7F2368"></path>
                                    <path d="M8.54621129,9.88505145 L10.651634,9.88505145 C11.6063368,9.88505145 12.3819446,9.10944361 12.3819446,8.15474086 C12.3819446,7.20003812 11.6063368,6.42443027 10.651634,6.42443027 L8.54621129,6.42443027 L8.54621129,9.88505145 Z M10.651634,10.4293871 L8.27404345,10.4293871 C8.12456267,10.4293871 8.00187561,10.3067001 8.00187561,10.1572193 L8.00187561,6.42443027 L7.49420502,6.42443027 C7.34331404,6.42443027 7.22203718,6.30174322 7.22203718,6.15226243 C7.22203718,6.00137145 7.34331404,5.88009459 7.49420502,5.88009459 L10.651634,5.88009459 C11.9067085,5.88009459 12.9262803,6.89966635 12.9262803,8.15474086 C12.9262803,9.40840518 11.9067085,10.4293871 10.651634,10.4293871 L10.651634,10.4293871 Z" id="Fill-52" fill="#7F2368"></path>
                                    <path d="M9.27894918,13.8901493 C9.42842996,13.8901493 9.55111702,14.0128364 9.55111702,14.1623172 L9.55111702,15.1297117 C9.55111702,15.2806027 9.42842996,15.4018795 9.27894918,15.4018795 C9.12946839,15.4018795 9.00678133,15.2806027 9.00678133,15.1297117 L9.00678133,14.1623172 C9.00678133,14.0128364 9.12946839,13.8901493 9.27894918,13.8901493 Z M10.4054138,13.8901493 C10.5548946,13.8901493 10.6775816,14.0128364 10.6775816,14.1623172 L10.6775816,15.1297117 C10.6775816,15.2806027 10.5548946,15.4018795 10.4054138,15.4018795 C10.255933,15.4018795 10.133246,15.2806027 10.133246,15.1297117 L10.133246,14.1623172 C10.133246,14.0128364 10.255933,13.8901493 10.4054138,13.8901493 Z M9.26724455,4.97460769 C9.41672533,4.97460769 9.53941239,5.09729475 9.53941239,5.24677553 L9.53941239,6.15212141 C9.53941239,6.30301239 9.41672533,6.42428925 9.26724455,6.42428925 C9.11776376,6.42428925 8.99507671,6.30301239 8.99507671,6.15212141 L8.99507671,5.24677553 C8.99507671,5.09729475 9.11776376,4.97460769 9.26724455,4.97460769 Z M10.3937092,4.97460769 C10.5446002,4.97460769 10.665877,5.09729475 10.665877,5.24677553 L10.665877,6.15212141 C10.665877,6.30301239 10.5446002,6.42428925 10.3937092,6.42428925 C10.2442284,6.42428925 10.1215413,6.30301239 10.1215413,6.15212141 L10.1215413,5.24677553 C10.1215413,5.09729475 10.2442284,4.97460769 10.3937092,4.97460769 Z" id="Combined-Shape" fill="#7F2368"></path>
                                </g>
                            </g>
                            <rect id="Rectangle" x="0" y="0" width="80" height="80"></rect>
                        </g>
                    </g>
                </g>
            </g>
        </g>
    </g>
</svg>