<?xml version="1.0" encoding="UTF-8"?>
<svg width="80px" height="80px" viewBox="0 0 80 80" version="1.1" xmlns="http://www.w3.org/2000/svg" xmlns:xlink="http://www.w3.org/1999/xlink">
    <title>Graphic</title>
    <defs>
        <rect id="path-1" x="0" y="0" width="380" height="380" rx="8"></rect>
        <filter x="-8.4%" y="-5.8%" width="116.8%" height="116.8%" filterUnits="objectBoundingBox" id="filter-3">
            <feMorphology radius="2.5" operator="erode" in="SourceAlpha" result="shadowSpreadOuter1"></feMorphology>
            <feOffset dx="0" dy="5" in="shadowSpreadOuter1" result="shadowOffsetOuter1"></feOffset>
            <feGaussianBlur stdDeviation="6" in="shadowOffsetOuter1" result="shadowBlurOuter1"></feGaussianBlur>
            <feColorMatrix values="0 0 0 0 0   0 0 0 0 0   0 0 0 0 0  0 0 0 0.0725251311 0" type="matrix" in="shadowBlurOuter1" result="shadowMatrixOuter1"></feColorMatrix>
            <feMorphology radius="1" operator="erode" in="SourceAlpha" result="shadowSpreadOuter2"></feMorphology>
            <feOffset dx="0" dy="10" in="shadowSpreadOuter2" result="shadowOffsetOuter2"></feOffset>
            <feGaussianBlur stdDeviation="10" in="shadowOffsetOuter2" result="shadowBlurOuter2"></feGaussianBlur>
            <feColorMatrix values="0 0 0 0 0.196078431   0 0 0 0 0.196078431   0 0 0 0 0.364705882  0 0 0 0.153354458 0" type="matrix" in="shadowBlurOuter2" result="shadowMatrixOuter2"></feColorMatrix>
            <feMerge>
                <feMergeNode in="shadowMatrixOuter1"></feMergeNode>
                <feMergeNode in="shadowMatrixOuter2"></feMergeNode>
            </feMerge>
        </filter>
    </defs>
    <g id="Design" stroke="none" stroke-width="1" fill="none" fill-rule="evenodd">
        <g id="Design---Homepage--Short-version-" transform="translate(-576.000000, -920.000000)">
            <rect fill="#FFFFFF" x="0" y="0" width="1440" height="2929"></rect>
            <g id="Boxes" transform="translate(143.000000, 484.000000)">
                <g id="Box_05" transform="translate(401.000000, 400.000000)">
                    <mask id="mask-2" fill="white">
                        <use xlink:href="#path-1"></use>
                    </mask>
                    <g id="Mask-Copy-3">
                        <use fill="black" fill-opacity="1" filter="url(#filter-3)" xlink:href="#path-1"></use>
                        <use fill="#FFFFFF" fill-rule="evenodd" xlink:href="#path-1"></use>
                    </g>
                    <g id="Graphic" mask="url(#mask-2)">
                        <g transform="translate(32.000000, 36.000000)">
                            <g id="Hands" stroke-width="1" fill-rule="evenodd" transform="translate(11.000000, 20.000000)">
                                <g id="Group-3" transform="translate(0.000000, 0.891393)" fill="#FF5AEC" stroke="#FF5AEC" stroke-width="0.4">
                                    <path d="M26.4336886,1.48451334 L27.279889,1.90897443 C27.3790461,1.95871947 27.4974962,1.94973617 27.5879041,1.88561784 L28.2867149,1.39018866 L28.1449337,1.48956645 C28.0546379,1.55278645 27.936973,1.56154517 27.8383768,1.51224929 L27.6395017,1.41264692 C27.2368162,1.2116455 26.622132,0.906213189 25.9255646,0.559233095 L25.9177128,0.554741443 C25.2301189,0.216744653 24.3765154,0.0438160623 23.3860662,0.0404473236 C22.4943253,0.0438160623 21.708023,0.186426004 21.0507147,0.463785496 L18.0950705,1.72593962 C17.520767,1.97522629 16.6806237,2.12457371 15.8460889,2.12457371 L15.792248,2.12457371 C14.9588348,2.12457371 14.1186916,1.97522629 13.5477531,1.72818545 L10.5853788,0.462662583 C10.1580162,0.280750689 9.67793434,0.187548917 9.15971514,0.187548917 C8.58653329,0.187548917 8.02456831,0.298717296 7.4895238,0.515439491 C6.93428894,0.742267902 6.47215406,1.05892935 6.11545773,1.45756343 L0.722388598,7.50444954 C0.255766977,8.02660405 -0.00109925287,8.69698306 1.87755557e-05,9.39431199 C-0.00109925287,10.2241446 0.363448889,11.0113066 0.999445186,11.5536735 L6.57198417,16.3137014 L6.46654563,16.4248698 L6.76928884,16.1113525 C6.88975798,15.9867092 6.88011148,15.7862692 6.7483133,15.6737534 L1.39652224,11.1045084 C0.897371707,10.6766785 0.611341626,10.0545848 0.609098253,9.39318908 C0.611341626,8.83397844 0.808758466,8.31856141 1.18003673,7.90196071 L6.57198417,1.85619752 C6.85689257,1.53616734 7.26518648,1.25768493 7.72283461,1.07128139 C8.17038756,0.888246582 8.68075496,0.788307332 9.16083682,0.788307332 C9.59268616,0.788307332 10.0032235,0.866911236 10.3464596,1.01513574 L13.3054688,2.27841278 C13.9997928,2.57261597 14.8477878,2.7230863 15.8191684,2.72533213 C16.7950358,2.72196339 17.6419091,2.57261597 18.3339898,2.28065861 L21.2885122,1.01850448 C21.8280435,0.782692767 22.6053723,0.641205738 23.3658758,0.641205738 L23.4197168,0.641205738 C24.2497648,0.641205738 25.10449,0.814134329 25.6417779,1.089248 C25.9221996,1.2284892 26.1880393,1.36099292 26.4336886,1.48451334 M48.4209892,20.949086 L47.752464,20.3314839 L47.6470255,20.2337905 L47.076087,19.7060214 L47.0772087,19.7048985 L46.6362737,19.2961582 L46.1730171,18.8672054 L42.6409382,15.5995288 C41.5596323,14.6001363 39.7817591,13.147087 38.593893,12.2936732 L33.604631,8.71158093 C33.4412013,8.59637006 33.2732848,8.49833977 33.1036858,8.41490733 C32.9029039,8.316091 32.6680227,8.45971156 32.6680227,8.68373269 C32.6680227,8.79826981 32.7333049,8.90314987 32.8363879,8.95289492 C32.9856844,9.02509822 33.1229788,9.10673399 33.2445696,9.1955564 L38.2383183,12.7787715 C39.3757085,13.5951292 41.202936,15.0874805 42.2281575,16.0385878 L48.0082085,21.3881449 C48.4781952,21.8238352 48.7373048,22.4212248 48.739436,23.0713914 C48.7384265,23.6541832 48.5208193,24.207667 48.1259856,24.6322404 L47.6694592,25.1229533 C47.2320014,25.591208 46.6341425,25.8493657 45.9835642,25.8506009 C45.3991655,25.8493657 44.8450523,25.6327558 44.4209426,25.2408592 L37.4450616,18.7819763 C37.3236951,18.6695727 37.1342422,18.6766471 37.0215127,18.7978094 L37.0200545,18.7993815 C36.9067642,18.920993 36.913943,19.1117759 37.0357581,19.2246286 L44.5478054,26.1908435 C45.0166704,26.6254108 45.2769017,27.2216776 45.2802667,27.8785816 C45.2769017,28.4613735 45.0592945,29.0138466 44.6667042,29.4360619 L44.2112994,29.9267748 C43.7738417,30.3950295 43.1771044,30.6532995 42.5242828,30.6544224 C41.9398841,30.6532995 41.3857709,30.4365773 40.9651384,30.0458036 L33.986341,23.5873699 C33.8650866,23.4751909 33.6760825,23.4820407 33.5634651,23.6027538 L33.5632408,23.6029784 C33.4493896,23.7247022 33.4562319,23.9158219 33.5784957,24.0290116 L39.6942675,29.6898402 C40.1485506,30.126541 40.3986867,30.7139368 40.3986867,31.3438909 C40.3986867,31.9266827 40.1810795,32.4814017 39.7873675,32.9047399 L39.3307289,33.3943299 C38.8956267,33.8625846 38.296646,34.1218652 37.6427027,34.1231004 C37.0593136,34.1218652 36.5053125,33.9052553 36.081315,33.5144816 L29.9816955,27.8774587 C29.8601047,27.7650551 29.6705396,27.7723541 29.5580345,27.893741 L29.5573615,27.894527 C29.4441833,28.0163631 29.4514742,28.207146 29.5736259,28.3198864 L32.3079613,30.8453176 L32.3201877,30.8587925 C32.7375673,31.2877453 32.9686347,31.8524582 32.9708781,32.452206 C32.9686347,33.0338749 32.7521492,33.5852251 32.3595589,34.0063175 L31.9030325,34.4981533 C31.4666964,34.9652851 30.8699591,35.2235551 30.2182592,35.2256886 C29.6349822,35.2235551 29.080869,35.0068329 28.6591148,34.6160592 L25.5270294,31.7129924 C25.4088036,31.6033961 25.2251835,31.6068771 25.1109958,31.7208528 L25.1092011,31.7225372 C24.9885076,31.843138 24.9922092,32.0399847 25.1173894,32.1559816 L28.2396041,35.0482684 C28.7757702,35.546954 29.4757027,35.8209448 30.2104074,35.8209448 L30.2249893,35.8209448 C31.0281169,35.8209448 31.800959,35.4851938 32.3460987,34.9012791 L32.8037468,34.4105661 C33.1021154,34.0905359 33.3197226,33.6941477 33.45096,33.2337534 L33.6175304,32.6500632 C33.6789988,32.4346885 33.9456237,32.3599025 34.1099508,32.5118327 L35.6640476,33.9489366 C36.2024572,34.4453764 36.904633,34.7193672 37.6449461,34.7193672 C38.4524483,34.7193672 39.2287676,34.3835039 39.7749168,33.7985786 L40.2315554,33.3067427 C40.6342409,32.8755442 40.8888637,32.3241939 40.9673818,31.7133293 L41.0207741,31.2942582 C41.0436565,31.1148167 41.2184153,30.9961248 41.3932862,31.0411536 L41.8019166,31.146146 C42.0778515,31.2170018 42.3134057,31.2506892 42.5242828,31.2506892 C43.3307755,31.2506892 44.1081043,30.9149382 44.6554873,30.3299006 L45.1120138,29.8391876 C45.6111643,29.3035581 45.8859775,28.6062292 45.883622,27.8729671 C45.883622,27.6775802 45.8579353,27.4653497 45.8029727,27.2216776 L45.7134621,26.8225943 C45.6747639,26.6502272 45.7920923,26.4819025 45.9669633,26.4587705 L46.3705461,26.4053199 C46.8517497,26.3412016 47.544952,26.1369437 48.1136471,25.5260791 L48.571183,25.0352538 C49.0693241,24.5008596 49.3441373,23.8024077 49.3441373,23.0668998 C49.3441373,22.2651399 49.0076313,21.4925758 48.4209892,20.949086" id="Fill-1"></path>
                                </g>
                                <g id="Group-6" transform="translate(2.284836, 0.000000)" fill="#6A6A6A">
                                    <path d="M53.5081444,11.7307586 L45.2249766,20.990682 L44.7778221,20.5719724 L53.0518875,11.323552 C53.487664,10.8427261 53.7493575,10.1191868 53.7482197,9.39104623 C53.7482197,8.74112614 53.5422783,8.10385936 53.1815964,7.64028804 L48.5678265,1.67137592 C48.1024672,1.05826546 47.2980442,0.67521521 46.472003,0.67521521 C45.9759232,0.67521521 45.5082883,0.80634953 45.1146102,1.05481456 L40.6134822,3.88570543 C39.8761893,4.34352524 38.9204392,4.58968967 37.8531849,4.59429087 C37.0339705,4.59199027 36.3080555,4.44130083 35.6993337,4.14682376 L31.2949185,1.988859 C30.8409372,1.7622497 30.2151484,1.63111538 29.5825328,1.63111538 L29.5347453,1.63111538 C28.6256449,1.63111538 27.6596546,1.90948823 27.0714132,2.33970082 L21.6657359,6.17940571 C21.0558763,6.61536981 20.7042968,7.29519772 20.6997456,8.04634431 C20.7020212,8.54442466 20.8578995,9.01489779 21.1503135,9.41290195 L21.5553696,9.96389615 C22.019591,10.6034635 22.8308409,11.002618 23.66826,11.002618 C24.1484107,11.0014677 24.5989786,10.8772352 24.9824164,10.6448744 L26.8119953,9.53368356 C27.3364063,9.21781089 27.5285943,9.06225044 28.2294777,9.01531816 C28.4064053,9.00347005 28.554319,9.15116871 28.549654,9.33050064 C28.545558,9.48970231 28.4214242,9.61796087 28.2641806,9.62831358 C27.6696812,9.66776891 27.5521327,9.79974819 27.1294408,10.0616717 L25.3021376,11.1705619 C24.8208492,11.4627384 24.2587771,11.6168788 23.6762246,11.6168788 C22.6374152,11.6145781 21.6589092,11.132602 21.0592897,10.3273913 L20.6576471,9.78099828 C20.2901384,9.28291793 20.0874627,8.67210808 20.0874627,8.05899762 L20.0874627,8.05439641 C20.0864726,7.11345016 20.5438673,6.22886866 21.310743,5.68362596 L25.2304564,2.89759683 L25.3066888,2.84353268 L26.1645883,2.22927192 L26.7198336,1.83586896 C27.6733082,1.16639376 28.794039,1.02145582 29.5654659,1.01800492 C30.3209636,1.01915522 30.9956777,1.16064225 31.5668522,1.4390151 L35.9724051,3.59697986 C36.4593826,3.83969339 37.1397856,3.98003011 37.8361179,3.98003011 L37.8850432,3.98003011 C38.7793522,3.98003011 39.7009684,3.7442184 40.2914855,3.36231845 L44.7857867,0.536028784 C45.2784531,0.225447502 45.85873,0.0621047534 46.466314,0.0621047534 C47.5005722,0.0632550545 48.4449443,0.514173064 49.0559417,1.29867838 L53.6697117,7.2675905 C54.2397484,8.00838437 54.3603549,8.83199992 54.3614927,9.39219653 C54.3603549,10.2836798 54.0577007,11.1153475 53.5081444,11.7307586 Z" id="Fill-4"></path>
                                    <path d="M22.3133858,32.3493002 L19.5364016,35.2373592 C19.0986448,35.6927752 18.5036576,35.9451704 17.8577684,35.9475376 C17.2593877,35.9464104 16.6926793,35.7220842 16.2594471,35.3140134 L15.7707884,34.8505937 C15.3104085,34.4155813 15.0558988,33.8237659 15.0536365,33.1800962 C15.0558988,32.5825318 15.2821297,32.0188981 15.6927387,31.5929037 L18.4685918,28.7037175 C18.9086109,28.2483014 19.5035981,27.9957935 20.1460938,27.9957935 L20.1483561,27.9957935 C20.747868,27.9957935 21.3145764,28.221247 21.7455462,28.6269506 L22.2364673,29.0914974 C22.695716,29.5253827 22.9502257,30.117198 22.9524881,30.7621077 C22.9502257,31.3584321 22.7228637,31.9220658 22.3133858,32.3493002 L22.3133858,32.3493002 Z M13.6193326,32.8520614 C13.1815758,33.3074774 12.5865886,33.5598726 11.9406994,33.5622399 C11.3423187,33.5611126 10.7744791,33.3367864 10.3435093,32.9297301 L9.85258825,32.466536 C9.38994608,32.0291562 9.13543632,31.4361009 9.13543632,30.7969403 C9.13543632,30.2716337 9.31302757,29.7746215 9.64784929,29.3596743 L9.66594777,29.337129 L14.2787957,24.5384645 L14.2980253,24.52257 C14.7267328,24.1370446 15.277605,23.9241038 15.848838,23.9241038 L15.8499692,23.9241038 C16.4483499,23.925231 17.0161894,24.1495573 17.4471593,24.5565008 L17.9380803,25.0208222 C18.3984602,25.4560601 18.65297,26.0478755 18.6552323,26.6915452 C18.65297,27.2867424 18.4267391,27.8492488 18.01613,28.2787377 L13.6193326,32.8520614 Z M8.23277506,29.9549842 C7.79501829,30.409273 7.20003104,30.6606536 6.555273,30.6629082 C5.95689229,30.6616682 5.39018391,30.438582 4.95695175,30.0305112 L4.53163767,29.627964 L4.46603071,29.5670915 C4.00451969,29.1297118 3.75114109,28.5378964 3.75114109,27.8977213 C3.75114109,27.3024114 3.97624083,26.7377632 4.38911221,26.3070343 C6.15484432,24.4752248 10.7394133,19.7170292 10.9939231,19.447725 L11.007497,19.4319433 L11.0335135,19.4070307 C11.4667457,18.9911817 12.0368475,18.7623465 12.6397528,18.7612192 L12.6420152,18.7612192 C13.2403959,18.7623465 13.8071042,18.9854327 14.2392052,19.3935035 L14.727864,19.8557958 C15.1882438,20.2908083 15.4438847,20.8826237 15.4450159,21.5286606 C15.4438847,22.1238578 15.2165227,22.6874915 14.8070448,23.1158531 L8.23277506,29.9549842 Z M3.80430535,25.0502439 C3.20479349,25.0478766 2.63808511,24.8235504 2.20824641,24.4178469 L1.72071884,23.9567945 C1.25920782,23.5215566 1.00356691,22.9287267 1.0013046,22.2839297 C1.00356691,21.686478 1.2297978,21.1228443 1.64040687,20.6967373 L6.56884685,15.5710525 C7.00886594,15.113382 7.60498434,14.8620013 8.24748007,14.8608741 L8.24974238,14.8608741 C8.84586078,14.8620013 9.41256917,15.0863275 9.84806363,15.4942856 L10.3876243,16.007305 L10.429477,16.0681774 C10.5742648,16.2823582 11.0493497,17.0286092 11.0504808,17.6283155 C11.0493497,18.0950042 10.9068242,18.5459111 10.6387406,18.9314366 L10.6104617,18.9742727 L10.5674779,19.0169962 C10.4882971,19.0993994 5.30308501,24.4842429 5.24992075,24.5395918 L5.20580573,24.5858097 L5.15264147,24.6230096 C4.76013087,24.9003173 4.29522639,25.0478766 3.80430535,25.0502439 L3.80430535,25.0502439 Z M22.6606502,28.6607686 L22.1697292,28.1964471 C21.6256439,27.6812859 20.9096231,27.3971018 20.1551431,27.3971018 C20.1427004,27.3983418 20.1302577,27.3994691 20.117815,27.4016109 C20.0725688,27.40736 20.0273226,27.4129963 19.9820764,27.4151381 L19.2637934,27.4569597 L19.2637934,26.739905 C19.2637934,26.7162323 19.2649245,26.6915452 19.2671868,26.6667453 C19.2513507,26.1696204 18.7140523,25.1505707 18.3079678,24.5360972 L17.8747357,24.1258846 C17.4663889,23.7403592 16.9562383,23.4810877 16.3997103,23.3773791 L15.621476,23.2319616 L15.885035,22.4879651 C16.0004127,22.1610576 16.0592328,21.8375319 16.0592328,21.5275333 C16.0592328,20.7350644 15.7300668,19.9696498 15.1554404,19.4261942 L14.6656505,18.963 C14.1193029,18.4467116 13.4021509,18.1625275 12.6431463,18.1625275 C12.6205232,18.1625275 12.5764082,18.1682765 12.5322932,18.1739129 C12.487047,18.1795492 12.4406697,18.1851856 12.3942923,18.1896946 L11.6771404,18.2539489 L11.6556485,17.5370068 C11.6307631,16.7637014 11.3140398,16.0489011 10.7620364,15.5270891 L10.2733777,15.0637822 C9.72703011,14.5474937 9.00987818,14.2622951 8.24861123,14.2622951 C7.45001618,14.2622951 6.67630653,14.5903299 6.12882777,15.1607272 L4.68547468,16.6611201 L4.52145728,16.8313374 L3.99207699,17.3769348 L1.19473201,20.285172 C0.675532118,20.8252458 0.389347143,21.5353115 0.389347143,22.2871988 C0.388218885,23.0786532 0.718515987,23.8440678 1.29540476,24.3874107 L1.78293233,24.8495903 C2.13359022,25.1810069 2.56908468,25.4142385 3.07584188,25.543987 L3.91968311,25.7592951 L3.50341827,26.5224551 C3.26361352,26.9620894 3.13692422,27.4366689 3.13805538,27.8988486 L3.13805538,27.9033576 C3.13805538,28.6924448 3.46835248,29.4567321 4.04184779,29.9988349 L4.53050652,30.4633818 C5.07685412,30.978543 5.79400605,31.2625017 6.55979762,31.2625017 C6.95004591,31.2625017 7.33350727,31.1859602 7.70000131,31.0325391 L8.43185825,30.7282897 L8.62076104,31.4948315 C8.75649958,32.0425707 9.03476358,32.5274084 9.42727417,32.8982794 L9.9159329,33.3614735 C10.4622805,33.8778747 11.1805636,34.1619461 11.9440928,34.1619461 C12.5198505,34.1619461 13.0797719,33.992856 13.5661683,33.6725993 L14.3195172,33.1755871 L14.588732,34.0356922 C14.7437001,34.5350716 14.999341,34.9543023 15.3466055,35.2834644 L15.8352642,35.746884 C16.3804806,36.2631725 17.0976326,36.5471311 17.8611618,36.5471311 C18.6597569,36.5471311 19.4323354,36.2203363 19.9809453,35.6498263 L22.5690267,32.95577 L22.9999965,32.5274084 L23.0011277,32.5251539 L23.2330144,32.0707524 C23.450196,31.6458853 23.5655738,31.1938511 23.5655738,30.7597404 C23.5655738,29.9696387 23.2364078,29.2042242 22.6606502,28.6607686 L22.6606502,28.6607686 Z" id="Fill-7"></path>
                                </g>
                            </g>
                            <rect id="Rectangle" x="0" y="0" width="80" height="80"></rect>
                        </g>
                    </g>
                </g>
            </g>
        </g>
    </g>
</svg>